<!-- Generated by IcoMoon.io -->
<svg version="1.1" xmlns="http://www.w3.org/2000/svg" width="38" height="32" viewBox="0 0 38 32">
<title>icon-twitter</title>
<path d="M37.647 4.088c-1.292 0.589-2.791 1.017-4.362 1.209l-0.074 0.007c1.598-0.967 2.798-2.452 3.38-4.218l0.016-0.055c-1.411 0.853-3.054 1.503-4.804 1.858l-0.099 0.017c-1.41-1.503-3.41-2.44-5.627-2.44-0.004 0-0.007 0-0.011 0h0.001c-4.988 0-8.651 4.653-7.526 9.481-6.434-0.331-12.093-3.387-15.888-8.027l-0.031-0.039c-0.657 1.113-1.045 2.452-1.045 3.882 0 2.669 1.352 5.022 3.408 6.412l0.027 0.017c-1.29-0.042-2.489-0.395-3.536-0.986l0.038 0.020c-0.085 3.576 2.481 6.925 6.195 7.671-0.608 0.172-1.307 0.271-2.029 0.271-0.516 0-1.021-0.050-1.508-0.147l0.049 0.008c1.016 3.093 3.85 5.298 7.208 5.363l0.008 0c-2.612 2.063-5.952 3.309-9.583 3.309-0.653 0-1.297-0.040-1.928-0.119l0.076 0.008c3.341 2.175 7.428 3.469 11.818 3.469 0.008 0 0.015 0 0.023 0h-0.001c14.34 0 22.441-12.111 21.954-22.974 1.517-1.106 2.795-2.431 3.818-3.943l0.035-0.056z"></path>
</svg>
