<!-- Generated by IcoMoon.io -->
<svg version="1.1" xmlns="http://www.w3.org/2000/svg" width="32" height="32" viewBox="0 0 32 32">
<title>icon-pinterest</title>
<path d="M16 0c-8.835 0-16 7.163-16 16 0 6.779 4.218 12.568 10.17 14.899-0.141-1.266-0.267-3.208 0.056-4.589 0.291-1.248 1.875-7.952 1.875-7.952s-0.478-0.96-0.478-2.378c0-2.224 1.29-3.885 2.896-3.885 1.363 0 2.022 1.024 2.022 2.253 0 1.373-0.872 3.424-1.325 5.328-0.378 1.592 0.8 2.891 2.368 2.891 2.845 0 5.030-2.998 5.030-7.328 0-3.829-2.752-6.509-6.683-6.509-4.552 0-7.224 3.416-7.224 6.944 0 1.374 0.53 2.85 1.192 3.65 0.080 0.086 0.129 0.201 0.129 0.328 0 0.047-0.007 0.093-0.020 0.137l0.001-0.003-0.445 1.813c-0.070 0.293-0.232 0.357-0.536 0.214-1.998-0.93-3.248-3.851-3.248-6.198 0-5.046 3.667-9.683 10.573-9.683 5.55 0 9.864 3.957 9.864 9.242 0 5.515-3.477 9.952-8.304 9.952-1.621 0-3.144-0.84-3.666-1.837l-0.997 3.805c-0.362 1.39-1.336 3.133-1.99 4.194 1.499 0.464 3.090 0.714 4.739 0.714 8.835 0 16-7.163 16-16s-7.165-16-16-16z"></path>
</svg>
